#N canvas 4 0 1920 944 12;
#X obj 12 247 loadbang;
#X obj 180 194 bng 19 250 50 0 empty empty empty 0 -10 0 12 #fcfcfc #000000 #000000;
#N canvas 0 50 450 250 (subpatch) 0;
#X array dataSet 70 float 2;
#A color 0;
#A width 2;
#X coords 0 127 70 0 400 300 1;
#X restore 1025 25 graph;
#X obj 177 245 tabwrite dataSet;
#X obj 351 190 + 1;
#X floatatom 298 216 5 0 0 0 - - - 0;
#X msg 371 164 0;
#X obj 298 149 tgl 15 0 empty empty empty 0 -10 0 12 #fcfcfc #000000 #000000 0 1;
#X obj 298 191 int 0;
#X obj 348 216 tabread dataSet;
#X obj 476 135 expr sqrt(pow($f1-$f3 \, 2) + pow($f2-$f4 \, 2));
#X obj 416 244 / 127;
#X obj 799 197 unpack f f;
#X floatatom 476 158 5 0 0 0 - - - 0;
#N canvas 0 50 450 250 (subpatch) 0;
#X array centroid1distance 71 float 4;
#A color 0;
#A width 1;
#X coords 0 1 70 0 400 210 1;
#X restore 1023 366 graph;
#X obj 475 180 tabwrite centroid1distance;
#X obj 474 231 expr sqrt(pow($f1-$f3 \, 2) + pow($f2-$f4 \, 2));
#X obj 884 196 unpack f f;
#X obj 799 110 loadbang;
#X floatatom 474 255 5 0 0 0 - - - 0;
#X obj 520 255 tabwrite centroid2distance;
#N canvas 0 50 450 250 (subpatch) 0;
#X array centroid2distance 71 float 4;
#A color 0;
#A width 1;
#X coords 0 1 70 0 400 210 1;
#X restore 1456 365 graph;
#X obj 127 340 + 1;
#X floatatom 139 363 5 0 0 0 - - - 0;
#X msg 84 341 0;
#X obj 12 338 tgl 19 0 empty empty empty 0 -10 0 12 #fcfcfc #000000 #000000 0 1;
#X obj 83 364 int 0;
#X obj 12 390 tabread centroid1distance;
#X obj 195 392 tabread centroid2distance;
#X obj 799 167 r centroid1;
#X obj 886 168 r centroid2;
#X obj 865 110 bng 19 250 50 0 empty empty empty 0 -10 0 12 #fcfcfc #000000 #000000;
#X floatatom 136 445 5 0 0 0 - - - 0;
#X obj 12 456 tabread dataSet;
#X obj 12 553 tabwrite cluster1;
#X obj 150 543 tabwrite cluster2;
#X obj 151 516 spigot;
#X obj 12 529 spigot;
#X obj 186 486 expr 1 - $f1;
#N canvas 0 50 450 250 (subpatch) 0;
#X array cluster1 71 float 2;
#A color 0;
#A width 2;
#X coords 0 127 71 0 400 300 1;
#X restore 1020 612 graph;
#N canvas 0 50 450 250 (subpatch) 0;
#X array cluster2 71 float 2;
#A color 0;
#A width 2;
#X coords 0 127 71 0 400 300 1;
#X restore 1459 618 graph;
#X obj 14 590 r step3;
#X obj 140 315 s step3;
#X obj 406 164 s step2;
#X obj 12 314 r step2;
#X text 819 83 Centroid Data;
#X floatatom 844 223 5 0 0 0 - - - 0;
#X floatatom 799 226 5 0 0 0 - - - 0;
#X floatatom 930 227 5 0 0 0 - - - 0;
#X floatatom 886 224 5 0 0 0 - - - 0;
#X obj 297 272 s indexmap;
#X obj 385 273 s datamap;
#X obj 474 206 r indexmap;
#X obj 617 207 r datamap;
#X obj 844 250 s c1x;
#X obj 799 253 s c1y;
#X obj 930 254 s c2x;
#X obj 886 251 s c2y;
#X obj 476 110 r indexmap;
#X obj 575 111 r datamap;
#X obj 678 109 r c1x;
#X obj 699 206 r c2x;
#X obj 747 207 r c2y;
#X obj 748 110 r c1y;
#X obj 339 244 s index1;
#X obj 719 254 r index1;
#X obj 601 158 r index1;
#X obj 14 618 tgl 19 0 empty empty empty 0 -10 0 12 #fcfcfc #000000 #000000 0 1;
#X obj 62 672 + 1;
#X floatatom 15 700 5 0 0 0 - - - 0;
#X msg 85 644 0;
#X obj 15 672 int 0;
#X obj 398 342 tabread cluster1;
#X obj 60 698 s index3;
#X obj 157 340 s index2;
#X obj 13 431 r index2;
#X obj 75 529 r index2;
#X obj 213 517 r index2;
#X obj 71 590 r index3;
#X obj 371 100 r index1;
#X obj 399 312 r index3;
#X obj 636 533 + 1;
#X obj 560 397 t f b;
#X floatatom 510 558 5 0 0 0 - - - 0;
#X floatatom 595 557 5 0 0 0 - - - 0;
#X obj 38 617 sel 71;
#X obj 35 340 sel 71;
#X obj 372 126 sel 71;
#X obj 298 241 / 70;
#X obj 592 533 int 0;
#X obj 510 508 f;
#X obj 542 508 +;
#X msg 602 505 0;
#X obj 510 581 expr $f1/$f2;
#X floatatom 510 608 5 0 0 0 - - - 0;
#X floatatom 402 611 5 0 0 0 - - - 0;
#X floatatom 402 553 5 0 0 0 - - - 0;
#X obj 403 477 f;
#X obj 433 477 +;
#X obj 399 398 r index3;
#X obj 400 425 spigot;
#X obj 457 655 pack f f;
#X obj 456 680 s centroid1;
#X obj 510 532 / 127;
#X obj 402 526 / 70;
#X obj 683 311 r index3;
#X obj 931 520 + 1;
#X obj 850 395 t f b;
#X floatatom 799 553 5 0 0 0 - - - 0;
#X floatatom 883 549 5 0 0 0 - - - 0;
#X obj 883 521 int 0;
#X obj 800 506 f;
#X obj 831 505 +;
#X obj 799 579 expr $f1/$f2;
#X floatatom 799 609 5 0 0 0 - - - 0;
#X floatatom 688 609 5 0 0 0 - - - 0;
#X floatatom 687 552 5 0 0 0 - - - 0;
#X obj 684 477 f;
#X obj 717 478 +;
#X obj 685 396 r index3;
#X obj 685 424 spigot;
#X obj 747 654 pack f f;
#X obj 799 530 / 127;
#X obj 687 526 / 70;
#X obj 747 681 s centroid2;
#X obj 684 338 tabread cluster2;
#X msg 142 607 const 0;
#X obj 142 634 s cluster1;
#X obj 143 660 s cluster2;
#X obj 142 572 r rerun;
#X obj 298 100 r rerun;
#X obj 13 90 bng 80 250 50 0 empty empty empty 0 -10 0 12 #fcfcfc #000000 #000000;
#X obj 11 194 s rerun;
#X obj 225 632 s centroid1distance;
#X obj 226 658 s centroid2distance;
#X floatatom 403 501 5 0 0 0 - - - 0;
#X floatatom 687 503 5 0 0 0 - - - 0;
#X msg 759 396 0;
#X msg 806 396 1;
#X msg 516 397 1;
#X msg 471 397 0;
#X obj 601 480 r resetC;
#X obj 72 314 s resetC;
#X obj 398 371 moses 0.1;
#X obj 684 363 moses 0.1;
#X obj 101 92 bng 80 250 50 0 empty empty empty 0 -10 0 12 #fcfcfc #000000 #000000;
#X obj 70 194 s reset;
#X obj 891 111 r reset;
#X obj 205 572 r reset;
#X msg 205 607 const 0;
#X obj 269 606 s dataSet;
#X text 568 83 Distance from centroids;
#X obj 403 636 sel 0;
#X obj 688 635 sel 0;
#X text 263 573 Reset things;
#X obj 685 450 t f b;
#X obj 402 451 t f b;
#X obj 297 164 metro 40;
#X obj 13 365 metro 40;
#X obj 14 643 metro 40;
#X obj 137 421 >;
#X text 168 418 Compare data distance and sort;
#X obj 556 207 s note2;
#X obj 522 158 s note1;
#X obj 809 357 s note3;
#X obj 297 16 cnv 19 665 60 empty empty MANUAL\ K-CLUSTER\ ALGORITHM 15 30 0 40 #0f4710 #ffffff 0;
#X obj 193 92 bng 80 250 50 0 empty empty empty 0 -10 0 12 #fcfcfc #000000 #000000;
#X obj 126 194 s play;
#X obj 17 732 r play;
#X obj 69 808 + 1;
#X floatatom 17 836 5 0 0 0 - - - 0;
#X msg 94 782 0;
#X obj 17 758 tgl 15 0 empty empty empty 0 -10 0 12 #fcfcfc #000000 #000000 0 1;
#X obj 18 808 int 0;
#X obj 191 913 dac~;
#X obj 191 884 *~;
#X msg 127 782 1;
#X obj 189 800 osc~;
#X obj 189 747 tabread cluster1;
#X obj 189 774 mtof;
#X obj 338 774 mtof;
#X obj 338 748 tabread cluster2;
#X obj 380 801 phasor~;
#X obj 191 826 expr~ 0.5*($v1-0.5);
#X obj 339 826 osc~;
#X obj 39 756 sel 71;
#X obj 18 781 metro 100;
#X msg 896 493 0;
#X obj 896 466 r resetC;
#X msg 737 450 0;
#X obj 737 426 r resetC;
#X msg 455 450 0;
#X obj 455 425 r resetC;
#X obj 402 583 expr $f1/$f2;
#X obj 603 581 s total1;
#X obj 730 553 r total2;
#X obj 891 579 s total2;
#X obj 445 555 r total1;
#X obj 687 581 expr $f1/$f2;
#X obj 93 756 delay 50;
#X obj 70 731 r indexmusic;
#X obj 17 861 s indexmusic;
#X obj 101 809 s volume;
#X obj 379 855 r volume;
#X obj 575 884 dac~;
#X obj 573 765 * 127;
#X obj 686 764 * 127;
#X obj 575 798 mtof;
#X obj 688 797 mtof;
#X obj 575 821 osc~;
#X obj 689 820 osc~;
#X obj 878 795 r step2;
#X msg 879 821 0;
#X obj 798 795 r rerun;
#X obj 571 740 r note1;
#X obj 696 739 r note2;
#X obj 575 855 *~;
#X obj 16 23 cnv 19 70 60 empty empty RUN 15 30 0 20 #0f4710 #ffffff 0;
#X obj 108 23 cnv 19 70 60 empty empty RESET 5 30 0 20 #0f4710 #ffffff 0;
#X obj 193 721 r indexmusic;
#X obj 338 723 r indexmusic;
#X obj 196 23 cnv 19 70 60 empty empty PLAY 10 30 0 20 #0f4710 #ffffff 0;
#X obj 381 826 expr~ 2*($v1*($v1-0.3));
#N canvas 0 50 450 250 (subpatch) 0;
#X array centroids 70 float 2;
#A color 0;
#A width 2;
#X coords 0 1 70 0 400 300 1;
#X restore 1454 24 graph;
#X obj 799 301 tabwrite centroids;
#X obj 843 275 * 70;
#X obj 883 276 * 70;
#X msg 885 140 0.8 0.1;
#X msg 217 686 const 0;
#X obj 282 687 s centroids;
#X obj 378 657 bng 19 250 50 0 empty empty empty 0 -10 0 12 #fcfcfc #000000 #000000;
#X obj 378 681 delay 100;
#X obj 144 687 r reset;
#X msg 800 140 0.1 0.9;
#X msg 798 820 0.8;
#X msg 10 271 \; pd colors #bcd9bb #4C8780 #ffffff;
#X text 205 190 Write Notes;
#N canvas 0 76 1920 944 MusicContent 0;
#X obj 100 -5 inlet;
#X obj 632 104 outlet;
#X obj 104 418 outlet;
#X obj 167 82 + 1;
#X floatatom 107 102 5 0 0 0 - - - 0;
#X obj 101 20 tgl 19 0 empty empty empty 0 -10 0 12 #fcfcfc #000000 #000000 0 1;
#X floatatom 235 302 5 0 0 0 - - - 0;
#X msg 78 256 62;
#X msg 186 257 69;
#X obj 151 302 notein;
#X obj 151 326 stripnote;
#X msg 148 256 65;
#X msg 263 256 72;
#X msg 340 256 67;
#X msg 416 254 71;
#X msg 496 257 74;
#X msg 535 258 77;
#X msg 649 259 60;
#X msg 726 260 64;
#X msg 810 258 71;
#X msg 377 255 95;
#X obj 237 530 dac~;
#X obj 236 408 mtof;
#X obj 237 458 hip~ 90;
#X obj 237 482 lop~ 120;
#X obj 237 434 phasor~;
#X obj 235 325 - 24;
#X floatatom 235 380 5 0 0 0 - - - 0;
#X obj 235 349 clip 0 110;
#X msg 40 255 60;
#X obj 107 78 int 0;
#X msg 206 100 0;
#X msg 187 53 0;
#X obj 237 506 *~;
#X obj 107 52 metro 200;
#X msg 110 257 105;
#X obj 310 475 tgl 19 0 empty empty empty 0 -10 0 12 #fcfcfc #000000 #000000 0 1;
#X msg 226 258 98;
#X msg 301 255 95;
#X msg 456 256 101;
#X msg 572 261 107;
#X msg 610 261 103;
#X msg 689 259 113;
#X msg 770 259 112;
#X msg 1417 257 69;
#X msg 1459 253 65;
#X msg 1342 258 72;
#X msg 1265 258 67;
#X msg 1193 257 71;
#X msg 1116 258 74;
#X msg 1080 260 77;
#X msg 965 258 60;
#X msg 894 258 64, f 2;
#X msg 1229 258 95;
#X msg 1156 256 101;
#X msg 1041 260 107;
#X msg 925 258 113;
#X msg 1537 257 62;
#X msg 1575 258 60;
#X obj 104 139 sel 1 2 3 4 5 6 7 8 9 10 11 12 13 14 15 16 17 18 19 20 21 22 23 24 25 26 27 28 29 30 31 32 33 34 35 36 37 38 39 40;
#X obj 205 77 sel 41;
#X msg 855 256 110;
#X msg 1002 259 108;
#X msg 1301 258 91;
#X msg 1380 258 88;
#X msg 1498 256 95;
#X connect 0 0 5 0;
#X connect 3 0 30 1;
#X connect 4 0 1 0;
#X connect 4 0 59 0;
#X connect 4 0 60 0;
#X connect 5 0 32 0;
#X connect 5 0 33 1;
#X connect 5 0 34 0;
#X connect 6 0 26 0;
#X connect 7 0 6 0;
#X connect 8 0 6 0;
#X connect 9 0 10 0;
#X connect 9 1 10 1;
#X connect 10 0 6 0;
#X connect 11 0 6 0;
#X connect 12 0 6 0;
#X connect 13 0 6 0;
#X connect 14 0 6 0;
#X connect 15 0 6 0;
#X connect 16 0 6 0;
#X connect 17 0 6 0;
#X connect 18 0 6 0;
#X connect 19 0 6 0;
#X connect 20 0 6 0;
#X connect 22 0 25 0;
#X connect 23 0 24 0;
#X connect 24 0 33 0;
#X connect 25 0 23 0;
#X connect 26 0 28 0;
#X connect 27 0 22 0;
#X connect 27 0 2 0;
#X connect 28 0 27 0;
#X connect 29 0 6 0;
#X connect 30 0 3 0;
#X connect 30 0 4 0;
#X connect 31 0 5 0;
#X connect 31 0 25 1;
#X connect 32 0 30 0;
#X connect 33 0 21 0;
#X connect 33 0 21 1;
#X connect 34 0 30 0;
#X connect 35 0 6 0;
#X connect 36 0 33 1;
#X connect 37 0 6 0;
#X connect 38 0 6 0;
#X connect 39 0 6 0;
#X connect 40 0 6 0;
#X connect 41 0 6 0;
#X connect 42 0 6 0;
#X connect 43 0 6 0;
#X connect 44 0 6 0;
#X connect 45 0 6 0;
#X connect 46 0 6 0;
#X connect 47 0 6 0;
#X connect 48 0 6 0;
#X connect 49 0 6 0;
#X connect 50 0 6 0;
#X connect 51 0 6 0;
#X connect 52 0 6 0;
#X connect 53 0 6 0;
#X connect 54 0 6 0;
#X connect 55 0 6 0;
#X connect 56 0 6 0;
#X connect 57 0 6 0;
#X connect 58 0 6 0;
#X connect 59 0 29 0;
#X connect 59 1 7 0;
#X connect 59 2 35 0;
#X connect 59 3 11 0;
#X connect 59 4 8 0;
#X connect 59 5 37 0;
#X connect 59 6 12 0;
#X connect 59 7 38 0;
#X connect 59 8 13 0;
#X connect 59 9 20 0;
#X connect 59 10 14 0;
#X connect 59 11 39 0;
#X connect 59 12 15 0;
#X connect 59 13 16 0;
#X connect 59 14 40 0;
#X connect 59 15 41 0;
#X connect 59 16 17 0;
#X connect 59 17 42 0;
#X connect 59 18 18 0;
#X connect 59 19 43 0;
#X connect 59 20 19 0;
#X connect 59 21 61 0;
#X connect 59 22 52 0;
#X connect 59 23 56 0;
#X connect 59 24 51 0;
#X connect 59 25 62 0;
#X connect 59 26 55 0;
#X connect 59 27 50 0;
#X connect 59 28 49 0;
#X connect 59 29 54 0;
#X connect 59 30 48 0;
#X connect 59 31 53 0;
#X connect 59 32 47 0;
#X connect 59 33 63 0;
#X connect 59 34 46 0;
#X connect 59 35 64 0;
#X connect 59 36 44 0;
#X connect 59 37 45 0;
#X connect 59 38 65 0;
#X connect 59 39 57 0;
#X connect 59 40 58 0;
#X connect 60 0 31 0;
#X connect 61 0 6 0;
#X connect 62 0 6 0;
#X connect 63 0 6 0;
#X connect 64 0 6 0;
#X connect 65 0 6 0;
#X restore 177 218 pd MusicContent;
#X connect 0 0 235 0;
#X connect 1 0 237 0;
#X connect 4 0 8 1;
#X connect 5 0 9 0;
#X connect 5 0 64 0;
#X connect 5 0 88 0;
#X connect 6 0 8 0;
#X connect 7 0 157 0;
#X connect 8 0 4 0;
#X connect 8 0 5 0;
#X connect 9 0 11 0;
#X connect 10 0 13 0;
#X connect 11 0 51 0;
#X connect 12 0 47 0;
#X connect 12 1 46 0;
#X connect 13 0 15 0;
#X connect 13 0 163 0;
#X connect 16 0 19 0;
#X connect 17 0 49 0;
#X connect 17 1 48 0;
#X connect 18 0 227 0;
#X connect 18 0 233 0;
#X connect 19 0 20 0;
#X connect 19 0 162 0;
#X connect 22 0 26 1;
#X connect 23 0 27 0;
#X connect 23 0 28 0;
#X connect 23 0 74 0;
#X connect 23 0 86 0;
#X connect 24 0 26 0;
#X connect 25 0 158 0;
#X connect 26 0 22 0;
#X connect 26 0 23 0;
#X connect 27 0 160 0;
#X connect 28 0 160 1;
#X connect 29 0 12 0;
#X connect 30 0 17 0;
#X connect 31 0 227 0;
#X connect 31 0 233 0;
#X connect 32 0 38 0;
#X connect 32 0 37 1;
#X connect 33 0 36 0;
#X connect 33 0 37 0;
#X connect 36 0 35 0;
#X connect 37 0 34 0;
#X connect 38 0 36 1;
#X connect 41 0 67 0;
#X connect 44 0 25 0;
#X connect 46 0 54 0;
#X connect 46 0 225 0;
#X connect 47 0 55 0;
#X connect 47 0 224 0;
#X connect 48 0 56 0;
#X connect 48 0 226 0;
#X connect 49 0 57 0;
#X connect 49 0 224 0;
#X connect 52 0 16 0;
#X connect 53 0 16 1;
#X connect 58 0 10 0;
#X connect 59 0 10 1;
#X connect 60 0 10 2;
#X connect 61 0 16 2;
#X connect 62 0 16 3;
#X connect 63 0 10 3;
#X connect 65 0 20 1;
#X connect 66 0 15 1;
#X connect 67 0 159 0;
#X connect 68 0 71 1;
#X connect 69 0 73 0;
#X connect 70 0 71 0;
#X connect 71 0 68 0;
#X connect 71 0 69 0;
#X connect 72 0 143 0;
#X connect 75 0 33 0;
#X connect 76 0 34 1;
#X connect 77 0 35 1;
#X connect 78 0 85 0;
#X connect 79 0 87 0;
#X connect 80 0 72 0;
#X connect 81 0 89 1;
#X connect 82 0 91 1;
#X connect 82 1 89 0;
#X connect 82 1 90 0;
#X connect 83 0 93 0;
#X connect 84 0 93 1;
#X connect 84 0 194 0;
#X connect 85 0 70 0;
#X connect 85 0 67 0;
#X connect 85 0 228 0;
#X connect 85 0 231 0;
#X connect 86 0 24 0;
#X connect 86 0 25 0;
#X connect 86 0 42 0;
#X connect 86 0 142 0;
#X connect 87 0 6 0;
#X connect 87 0 7 0;
#X connect 87 0 43 0;
#X connect 88 0 50 0;
#X connect 89 0 81 0;
#X connect 89 0 84 0;
#X connect 90 0 91 0;
#X connect 90 0 103 0;
#X connect 91 0 90 1;
#X connect 92 0 89 1;
#X connect 93 0 94 0;
#X connect 94 0 101 1;
#X connect 95 0 152 0;
#X connect 96 0 193 0;
#X connect 97 0 98 0;
#X connect 97 0 135 0;
#X connect 98 0 97 1;
#X connect 99 0 100 0;
#X connect 100 0 156 0;
#X connect 101 0 102 0;
#X connect 103 0 83 0;
#X connect 104 0 96 0;
#X connect 105 0 125 0;
#X connect 106 0 110 1;
#X connect 107 0 112 1;
#X connect 107 1 110 0;
#X connect 107 1 111 0;
#X connect 108 0 113 0;
#X connect 109 0 113 1;
#X connect 109 0 196 0;
#X connect 110 0 109 0;
#X connect 110 0 106 0;
#X connect 111 0 112 0;
#X connect 111 0 122 0;
#X connect 112 0 111 1;
#X connect 113 0 114 0;
#X connect 114 0 121 1;
#X connect 115 0 153 0;
#X connect 116 0 198 0;
#X connect 117 0 136 0;
#X connect 117 0 118 0;
#X connect 118 0 117 1;
#X connect 119 0 120 0;
#X connect 120 0 155 0;
#X connect 121 0 124 0;
#X connect 122 0 108 0;
#X connect 123 0 116 0;
#X connect 125 0 144 0;
#X connect 125 0 164 0;
#X connect 126 0 127 0;
#X connect 126 0 128 0;
#X connect 126 0 134 0;
#X connect 126 0 133 0;
#X connect 129 0 126 0;
#X connect 130 0 7 0;
#X connect 131 0 132 0;
#X connect 135 0 104 0;
#X connect 136 0 123 0;
#X connect 137 0 120 1;
#X connect 138 0 120 1;
#X connect 139 0 100 1;
#X connect 140 0 100 1;
#X connect 141 0 92 0;
#X connect 143 0 140 0;
#X connect 143 1 82 0;
#X connect 143 1 100 1;
#X connect 143 1 139 0;
#X connect 144 0 137 0;
#X connect 144 1 107 0;
#X connect 144 1 138 0;
#X connect 145 0 146 0;
#X connect 147 0 233 0;
#X connect 147 0 227 0;
#X connect 148 0 126 0;
#X connect 148 0 149 0;
#X connect 149 0 150 0;
#X connect 152 1 101 0;
#X connect 153 1 121 0;
#X connect 155 0 118 1;
#X connect 155 1 117 0;
#X connect 156 0 98 1;
#X connect 156 1 97 0;
#X connect 157 0 8 0;
#X connect 158 0 26 0;
#X connect 159 0 71 0;
#X connect 160 0 32 0;
#X connect 166 0 167 0;
#X connect 168 0 172 0;
#X connect 169 0 173 1;
#X connect 170 0 201 0;
#X connect 171 0 173 0;
#X connect 171 0 202 0;
#X connect 172 0 176 0;
#X connect 172 0 186 0;
#X connect 173 0 169 0;
#X connect 173 0 170 0;
#X connect 175 0 174 0;
#X connect 175 0 174 1;
#X connect 176 0 202 0;
#X connect 177 0 183 0;
#X connect 178 0 179 0;
#X connect 179 0 177 0;
#X connect 180 0 182 0;
#X connect 180 0 184 0;
#X connect 181 0 180 0;
#X connect 182 0 222 0;
#X connect 183 0 175 0;
#X connect 184 0 175 0;
#X connect 185 0 171 0;
#X connect 185 0 172 0;
#X connect 185 0 199 0;
#X connect 186 0 173 0;
#X connect 187 0 110 1;
#X connect 188 0 187 0;
#X connect 189 0 117 1;
#X connect 189 0 111 1;
#X connect 190 0 189 0;
#X connect 191 0 97 1;
#X connect 191 0 90 1;
#X connect 192 0 191 0;
#X connect 193 0 95 0;
#X connect 195 0 198 1;
#X connect 197 0 193 1;
#X connect 198 0 115 0;
#X connect 199 0 171 0;
#X connect 200 0 185 0;
#X connect 203 0 175 1;
#X connect 205 0 207 0;
#X connect 206 0 208 0;
#X connect 207 0 209 0;
#X connect 208 0 210 0;
#X connect 209 0 216 0;
#X connect 210 0 216 0;
#X connect 211 0 212 0;
#X connect 212 0 216 1;
#X connect 213 0 234 0;
#X connect 214 0 205 0;
#X connect 215 0 206 0;
#X connect 216 0 204 0;
#X connect 216 0 204 1;
#X connect 219 0 178 0;
#X connect 220 0 181 0;
#X connect 222 0 175 0;
#X connect 225 0 224 1;
#X connect 226 0 224 1;
#X connect 227 0 17 0;
#X connect 228 0 229 0;
#X connect 230 0 95 0;
#X connect 230 0 94 0;
#X connect 230 0 115 0;
#X connect 230 0 114 0;
#X connect 231 0 230 0;
#X connect 232 0 228 0;
#X connect 233 0 12 0;
#X connect 234 0 216 1;
#X connect 237 0 3 0;
#X connect 237 1 3 1;
#X coords 0 472 1 471 85 60 0;
